<?xml version="1.0" standalone="no"?>
<!DOCTYPE svg PUBLIC "-//W3C//DTD SVG 20010904//EN"
 "http://www.w3.org/TR/2001/REC-SVG-20010904/DTD/svg10.dtd">
<svg version="1.0" xmlns="http://www.w3.org/2000/svg"
 width="500.000000pt" height="500.000000pt" viewBox="0 0 500.000000 500.000000"
 preserveAspectRatio="xMidYMid meet">

<g transform="translate(0.000000,500.000000) scale(0.100000,-0.100000)"
fill="#000000" stroke="none">
<path d="M2370 2053 c31 -12 50 -37 50 -68 0 -36 -15 -55 -45 -55 -31 0 -45
19 -45 60 0 20 5 41 12 48 7 7 9 12 6 12 -17 0 -38 -35 -38 -64 0 -41 26 -66
68 -66 35 0 62 30 62 68 0 28 -42 72 -67 71 -14 0 -15 -2 -3 -6z"/>
<path d="M2825 2046 c-24 -17 -14 -42 25 -64 37 -21 40 -52 5 -52 -13 0 -29 8
-34 18 -9 15 -10 15 -11 -5 0 -19 5 -23 33 -23 63 0 76 40 22 71 -38 23 -44
43 -17 58 9 6 12 11 6 11 -5 0 -19 -6 -29 -14z"/>
<path d="M2120 2023 c0 -14 3 -23 7 -19 4 4 17 -15 29 -41 l21 -48 26 55 27
55 -3 -53 c-2 -42 1 -52 14 -52 15 0 16 6 7 43 -5 23 -7 52 -5 65 8 42 -18 22
-40 -31 l-22 -52 -22 53 c-25 57 -39 66 -39 25z"/>
<path d="M2498 1985 l-3 -65 38 0 c45 0 77 28 77 68 0 30 -26 62 -51 62 -8 0
-5 -6 9 -16 40 -27 23 -104 -23 -104 -24 0 -25 3 -25 60 0 81 -17 77 -22 -5z"/>
<path d="M2684 1998 c-9 -29 -21 -59 -27 -65 -7 -9 -5 -13 7 -13 9 0 15 3 15
8 -4 25 3 33 29 30 19 -2 27 -8 26 -20 -1 -11 5 -18 16 -18 16 0 15 6 -9 65
-14 36 -29 65 -33 65 -3 0 -14 -24 -24 -52z m39 -8 c4 -15 0 -20 -14 -20 -20
0 -23 8 -13 34 7 20 20 13 27 -14z"/>
<path d="M2876 2035 c4 -8 8 -15 10 -15 2 0 4 7 4 15 0 8 -4 15 -10 15 -5 0
-7 -7 -4 -15z"/>
<path d="M2108 1942 c-5 -18 -2 -22 15 -22 13 0 17 3 11 8 -6 4 -13 14 -16 22
-3 10 -6 8 -10 -8z"/>
</g>
</svg>
